<?xml version="1.0" standalone="no"?>
 <!DOCTYPE svg PUBLIC "-//W3C//DTD SVG 1.1//EN" 
 "http://www.w3.org/Graphics/SVG/1.1/DTD/svg11.dtd"> 
<svg
  xmlns:svg="http://www.w3.org/2000/svg"
  xmlns="http://www.w3.org/2000/svg"
  xmlns:xlink="http://www.w3.org/1999/xlink"
  version="1.1"
  width="35.6362mm" height="31.8262mm" viewBox="0.0000 0.0000 35.6362 31.8262">
<title>SVG Image created as practica-B_Cu.svg date 2023/04/30 17:04:22 </title>
  <desc>Image generated by PCBNEW </desc>
<g style="fill:#000000; fill-opacity:1.0000;stroke:#000000; stroke-opacity:1.0000;
stroke-linecap:round; stroke-linejoin:round;"
 transform="translate(0 0) scale(1 1)">
</g>
<g style="fill:#000000; fill-opacity:0.0; 
stroke:#000000; stroke-width:0.0000; stroke-opacity:1; 
stroke-linecap:round; stroke-linejoin:round;">
</g>
<g style="fill:#000000; fill-opacity:0.0; 
stroke:#000000; stroke-width:0.1000; stroke-opacity:1; 
stroke-linecap:round; stroke-linejoin:round;">
<text x="2.3122" y="27.2280"
transform="scale(-1 1) translate(-4.624400 0)"
textLength="3.6690" font-size="1.3333" lengthAdjust="spacingAndGlyphs"
text-anchor="start" opacity="0">out-</text>
<g class="stroked-text"><desc>out-</desc>
<path d="M2.6932 27.1056
L2.5979 27.0580
" />
<path d="M2.5979 27.0580
L2.5503 27.0104
" />
<path d="M2.5503 27.0104
L2.5027 26.9151
" />
<path d="M2.5027 26.9151
L2.5027 26.6294
" />
<path d="M2.5027 26.6294
L2.5503 26.5342
" />
<path d="M2.5503 26.5342
L2.5979 26.4866
" />
<path d="M2.5979 26.4866
L2.6932 26.4390
" />
<path d="M2.6932 26.4390
L2.8360 26.4390
" />
<path d="M2.8360 26.4390
L2.9312 26.4866
" />
<path d="M2.9312 26.4866
L2.9789 26.5342
" />
<path d="M2.9789 26.5342
L3.0265 26.6294
" />
<path d="M3.0265 26.6294
L3.0265 26.9151
" />
<path d="M3.0265 26.9151
L2.9789 27.0104
" />
<path d="M2.9789 27.0104
L2.9312 27.0580
" />
<path d="M2.9312 27.0580
L2.8360 27.1056
" />
<path d="M2.8360 27.1056
L2.6932 27.1056
" />
<path d="M3.8836 26.4390
L3.8836 27.1056
" />
<path d="M3.4551 26.4390
L3.4551 26.9628
" />
<path d="M3.4551 26.9628
L3.5027 27.0580
" />
<path d="M3.5027 27.0580
L3.5979 27.1056
" />
<path d="M3.5979 27.1056
L3.7408 27.1056
" />
<path d="M3.7408 27.1056
L3.8360 27.0580
" />
<path d="M3.8360 27.0580
L3.8836 27.0104
" />
<path d="M4.2170 26.4390
L4.5979 26.4390
" />
<path d="M4.3598 26.1056
L4.3598 26.9628
" />
<path d="M4.3598 26.9628
L4.4074 27.0580
" />
<path d="M4.4074 27.0580
L4.5027 27.1056
" />
<path d="M4.5027 27.1056
L4.5979 27.1056
" />
<path d="M4.9312 26.7247
L5.6932 26.7247
" />
</g><text x="2.3122" y="31.0380"
transform="scale(-1 1) translate(-4.624400 0)"
textLength="3.6690" font-size="1.3333" lengthAdjust="spacingAndGlyphs"
text-anchor="start" opacity="0">out+</text>
<g class="stroked-text"><desc>out+</desc>
<path d="M2.6932 30.9156
L2.5979 30.8680
" />
<path d="M2.5979 30.8680
L2.5503 30.8204
" />
<path d="M2.5503 30.8204
L2.5027 30.7251
" />
<path d="M2.5027 30.7251
L2.5027 30.4394
" />
<path d="M2.5027 30.4394
L2.5503 30.3442
" />
<path d="M2.5503 30.3442
L2.5979 30.2966
" />
<path d="M2.5979 30.2966
L2.6932 30.2490
" />
<path d="M2.6932 30.2490
L2.8360 30.2490
" />
<path d="M2.8360 30.2490
L2.9312 30.2966
" />
<path d="M2.9312 30.2966
L2.9789 30.3442
" />
<path d="M2.9789 30.3442
L3.0265 30.4394
" />
<path d="M3.0265 30.4394
L3.0265 30.7251
" />
<path d="M3.0265 30.7251
L2.9789 30.8204
" />
<path d="M2.9789 30.8204
L2.9312 30.8680
" />
<path d="M2.9312 30.8680
L2.8360 30.9156
" />
<path d="M2.8360 30.9156
L2.6932 30.9156
" />
<path d="M3.8836 30.2490
L3.8836 30.9156
" />
<path d="M3.4551 30.2490
L3.4551 30.7728
" />
<path d="M3.4551 30.7728
L3.5027 30.8680
" />
<path d="M3.5027 30.8680
L3.5979 30.9156
" />
<path d="M3.5979 30.9156
L3.7408 30.9156
" />
<path d="M3.7408 30.9156
L3.8360 30.8680
" />
<path d="M3.8360 30.8680
L3.8836 30.8204
" />
<path d="M4.2170 30.2490
L4.5979 30.2490
" />
<path d="M4.3598 29.9156
L4.3598 30.7728
" />
<path d="M4.3598 30.7728
L4.4074 30.8680
" />
<path d="M4.4074 30.8680
L4.5027 30.9156
" />
<path d="M4.5027 30.9156
L4.5979 30.9156
" />
<path d="M4.9312 30.5347
L5.6932 30.5347
" />
<path d="M5.3122 30.9156
L5.3122 30.1537
" />
</g><text x="32.0302" y="17.8300"
transform="scale(-1 1) translate(-64.060400 0)"
textLength="3.1929" font-size="1.3333" lengthAdjust="spacingAndGlyphs"
text-anchor="start" opacity="0">+12</text>
<g class="stroked-text"><desc>+12</desc>
<path d="M32.2683 17.3267
L33.0302 17.3267
" />
<path d="M32.6492 17.7076
L32.6492 16.9457
" />
<path d="M34.0302 17.7076
L33.4588 17.7076
" />
<path d="M33.7445 17.7076
L33.7445 16.7076
" />
<path d="M33.7445 16.7076
L33.6492 16.8505
" />
<path d="M33.6492 16.8505
L33.5540 16.9457
" />
<path d="M33.5540 16.9457
L33.4588 16.9933
" />
<path d="M34.4112 16.8029
L34.4588 16.7552
" />
<path d="M34.4588 16.7552
L34.5540 16.7076
" />
<path d="M34.5540 16.7076
L34.7921 16.7076
" />
<path d="M34.7921 16.7076
L34.8873 16.7552
" />
<path d="M34.8873 16.7552
L34.9350 16.8029
" />
<path d="M34.9350 16.8029
L34.9826 16.8981
" />
<path d="M34.9826 16.8981
L34.9826 16.9933
" />
<path d="M34.9826 16.9933
L34.9350 17.1362
" />
<path d="M34.9350 17.1362
L34.3635 17.7076
" />
<path d="M34.3635 17.7076
L34.9826 17.7076
" />
</g><text x="32.0302" y="12.7500"
transform="scale(-1 1) translate(-64.060400 0)"
textLength="3.0976" font-size="1.3333" lengthAdjust="spacingAndGlyphs"
text-anchor="start" opacity="0">GND</text>
<g class="stroked-text"><desc>GND</desc>
<path d="M32.7921 11.6752
L32.6969 11.6276
" />
<path d="M32.6969 11.6276
L32.5540 11.6276
" />
<path d="M32.5540 11.6276
L32.4112 11.6752
" />
<path d="M32.4112 11.6752
L32.3159 11.7705
" />
<path d="M32.3159 11.7705
L32.2683 11.8657
" />
<path d="M32.2683 11.8657
L32.2207 12.0562
" />
<path d="M32.2207 12.0562
L32.2207 12.1990
" />
<path d="M32.2207 12.1990
L32.2683 12.3895
" />
<path d="M32.2683 12.3895
L32.3159 12.4848
" />
<path d="M32.3159 12.4848
L32.4112 12.5800
" />
<path d="M32.4112 12.5800
L32.5540 12.6276
" />
<path d="M32.5540 12.6276
L32.6492 12.6276
" />
<path d="M32.6492 12.6276
L32.7921 12.5800
" />
<path d="M32.7921 12.5800
L32.8397 12.5324
" />
<path d="M32.8397 12.5324
L32.8397 12.1990
" />
<path d="M32.8397 12.1990
L32.6492 12.1990
" />
<path d="M33.2683 12.6276
L33.2683 11.6276
" />
<path d="M33.2683 11.6276
L33.8397 12.6276
" />
<path d="M33.8397 12.6276
L33.8397 11.6276
" />
<path d="M34.3159 12.6276
L34.3159 11.6276
" />
<path d="M34.3159 11.6276
L34.5540 11.6276
" />
<path d="M34.5540 11.6276
L34.6969 11.6752
" />
<path d="M34.6969 11.6752
L34.7921 11.7705
" />
<path d="M34.7921 11.7705
L34.8397 11.8657
" />
<path d="M34.8397 11.8657
L34.8873 12.0562
" />
<path d="M34.8873 12.0562
L34.8873 12.1990
" />
<path d="M34.8873 12.1990
L34.8397 12.3895
" />
<path d="M34.8397 12.3895
L34.7921 12.4848
" />
<path d="M34.7921 12.4848
L34.6969 12.5800
" />
<path d="M34.6969 12.5800
L34.5540 12.6276
" />
<path d="M34.5540 12.6276
L34.3159 12.6276
" />
</g><g >
</g>
<g style="fill:#000000; fill-opacity:0.0; 
stroke:#000000; stroke-width:0.0000; stroke-opacity:1; 
stroke-linecap:round; stroke-linejoin:round;">
</g>
<g style="fill:#000000; fill-opacity:1.0000; 
stroke:#000000; stroke-width:0.0000; stroke-opacity:1; 
stroke-linecap:round; stroke-linejoin:round;">
<path style="fill:#000000; fill-opacity:1.0000; 
stroke:#000000; stroke-width:0.0000; stroke-opacity:1; 
stroke-linecap:round; stroke-linejoin:round;fill-rule:evenodd;"
d="M 7.6082,7.7080
9.2082,7.7080
9.2082,6.1080
7.6082,6.1080
Z" /> 
<circle cx="8.4082" cy="3.1080" r="0.8000" /> 
</g>
<g style="fill:#000000; fill-opacity:1.0000; 
stroke:#000000; stroke-width:0.0212; stroke-opacity:1; 
stroke-linecap:round; stroke-linejoin:round;">
</g>
<g >
</g>
<g style="fill:#000000; fill-opacity:1.0000; 
stroke:#000000; stroke-width:0.0212; stroke-opacity:1; 
stroke-linecap:round; stroke-linejoin:round;">
</g>
<g style="fill:#000000; fill-opacity:1.0000; 
stroke:#000000; stroke-width:0.0000; stroke-opacity:1; 
stroke-linecap:round; stroke-linejoin:round;">
<path style="fill:#000000; fill-opacity:1.0000; 
stroke:#000000; stroke-width:0.0000; stroke-opacity:1; 
stroke-linecap:round; stroke-linejoin:round;fill-rule:evenodd;"
d="M 30.1362,16.9300
28.3362,16.9300
28.3362,18.7300
30.1362,18.7300
Z" /> 
<circle cx="29.2362" cy="27.9900" r="0.9000" /> 
</g>
<g >
</g>
<g style="fill:#000000; fill-opacity:1.0000; 
stroke:#000000; stroke-width:0.0000; stroke-opacity:1; 
stroke-linecap:round; stroke-linejoin:round;">
<path style="fill:#000000; fill-opacity:1.0000; 
stroke:#000000; stroke-width:0.0000; stroke-opacity:1; 
stroke-linecap:round; stroke-linejoin:round;fill-rule:evenodd;"
d="M 14.5162,27.2450
16.0162,27.2450
16.0162,26.1950
14.5162,26.1950
Z" /> 
</g>
<g style="fill:#000000; fill-opacity:1.0000; 
stroke:#000000; stroke-width:1.0500; stroke-opacity:1; 
stroke-linecap:round; stroke-linejoin:round;">
</g>
<g style="fill:#000000; fill-opacity:0.0; 
stroke:#000000; stroke-width:1.0500; stroke-opacity:1; 
stroke-linecap:round; stroke-linejoin:round;">
<path d="M15.4912 25.4500
L15.0412 25.4500
" />
<path d="M15.4912 24.1800
L15.0412 24.1800
" />
</g>
<g >
</g>
<g style="fill:#000000; fill-opacity:0.0; 
stroke:#000000; stroke-width:1.0500; stroke-opacity:1; 
stroke-linecap:round; stroke-linejoin:round;">
</g>
<g style="fill:#000000; fill-opacity:1.0000; 
stroke:#000000; stroke-width:0.0000; stroke-opacity:1; 
stroke-linecap:round; stroke-linejoin:round;">
<circle cx="16.5362" cy="5.1300" r="0.7200" /> 
</g>
<g style="fill:#000000; fill-opacity:1.0000; 
stroke:#000000; stroke-width:0.0212; stroke-opacity:1; 
stroke-linecap:round; stroke-linejoin:round;">
</g>
<g style="fill:#000000; fill-opacity:1.0000; 
stroke:#000000; stroke-width:0.0000; stroke-opacity:1; 
stroke-linecap:round; stroke-linejoin:round;">
<circle cx="19.0762" cy="5.1300" r="0.7200" /> 
</g>
<g style="fill:#000000; fill-opacity:1.0000; 
stroke:#000000; stroke-width:0.0212; stroke-opacity:1; 
stroke-linecap:round; stroke-linejoin:round;">
</g>
<g style="fill:#000000; fill-opacity:1.0000; 
stroke:#000000; stroke-width:0.0000; stroke-opacity:1; 
stroke-linecap:round; stroke-linejoin:round;">
<circle cx="21.6162" cy="5.1300" r="0.7200" /> 
</g>
<g style="fill:#000000; fill-opacity:1.0000; 
stroke:#000000; stroke-width:0.0212; stroke-opacity:1; 
stroke-linecap:round; stroke-linejoin:round;">
</g>
<g >
</g>
<g style="fill:#000000; fill-opacity:1.0000; 
stroke:#000000; stroke-width:0.0212; stroke-opacity:1; 
stroke-linecap:round; stroke-linejoin:round;">
</g>
<g style="fill:#000000; fill-opacity:1.0000; 
stroke:#000000; stroke-width:0.0000; stroke-opacity:1; 
stroke-linecap:round; stroke-linejoin:round;">
<circle cx="8.4082" cy="12.7500" r="0.7000" /> 
<circle cx="16.0282" cy="12.7500" r="0.7000" /> 
</g>
<g style="fill:#000000; fill-opacity:1.0000; 
stroke:#000000; stroke-width:0.0212; stroke-opacity:1; 
stroke-linecap:round; stroke-linejoin:round;">
</g>
<g >
</g>
<g style="fill:#000000; fill-opacity:1.0000; 
stroke:#000000; stroke-width:0.0212; stroke-opacity:1; 
stroke-linecap:round; stroke-linejoin:round;">
</g>
<g style="fill:#000000; fill-opacity:1.0000; 
stroke:#000000; stroke-width:0.0000; stroke-opacity:1; 
stroke-linecap:round; stroke-linejoin:round;">
<path style="fill:#000000; fill-opacity:1.0000; 
stroke:#000000; stroke-width:0.0000; stroke-opacity:1; 
stroke-linecap:round; stroke-linejoin:round;fill-rule:evenodd;"
d="M 18.1762,11.8500
18.1762,13.6500
19.9762,13.6500
19.9762,11.8500
Z" /> 
<circle cx="29.2362" cy="12.7500" r="0.9000" /> 
</g>
<g >
</g>
<g style="fill:#000000; fill-opacity:1.0000; 
stroke:#000000; stroke-width:0.0000; stroke-opacity:1; 
stroke-linecap:round; stroke-linejoin:round;">
<path style="fill:#000000; fill-opacity:1.0000; 
stroke:#000000; stroke-width:0.0000; stroke-opacity:1; 
stroke-linecap:round; stroke-linejoin:round;fill-rule:evenodd;"
d="M 28.4362,7.7327
30.0362,7.7327
30.0362,6.1327
28.4362,6.1327
Z" /> 
<circle cx="29.2362" cy="3.1327" r="0.8000" /> 
</g>
<g style="fill:#000000; fill-opacity:1.0000; 
stroke:#000000; stroke-width:0.0212; stroke-opacity:1; 
stroke-linecap:round; stroke-linejoin:round;">
</g>
<g >
</g>
<g style="fill:#000000; fill-opacity:1.0000; 
stroke:#000000; stroke-width:0.0212; stroke-opacity:1; 
stroke-linecap:round; stroke-linejoin:round;">
</g>
<g style="fill:#000000; fill-opacity:1.0000; 
stroke:#000000; stroke-width:0.0000; stroke-opacity:1; 
stroke-linecap:round; stroke-linejoin:round;">
<path style="fill:#000000; fill-opacity:1.0000; 
stroke:#000000; stroke-width:0.0000; stroke-opacity:1; 
stroke-linecap:round; stroke-linejoin:round;fill-rule:evenodd;"
d="M 10.2032,18.5800
10.2032,17.0800
9.1532,17.0800
9.1532,18.5800
Z" /> 
</g>
<g style="fill:#000000; fill-opacity:1.0000; 
stroke:#000000; stroke-width:1.0500; stroke-opacity:1; 
stroke-linecap:round; stroke-linejoin:round;">
</g>
<g style="fill:#000000; fill-opacity:0.0; 
stroke:#000000; stroke-width:1.0500; stroke-opacity:1; 
stroke-linecap:round; stroke-linejoin:round;">
<path d="M8.4082 17.6050
L8.4082 18.0550
" />
<path d="M7.1382 17.6050
L7.1382 18.0550
" />
</g>
<g >
</g>
<g style="fill:#000000; fill-opacity:0.0; 
stroke:#000000; stroke-width:1.0500; stroke-opacity:1; 
stroke-linecap:round; stroke-linejoin:round;">
</g>
<g style="fill:#000000; fill-opacity:1.0000; 
stroke:#000000; stroke-width:0.0000; stroke-opacity:1; 
stroke-linecap:round; stroke-linejoin:round;">
<circle cx="23.6482" cy="17.8300" r="0.7000" /> 
</g>
<g style="fill:#000000; fill-opacity:1.0000; 
stroke:#000000; stroke-width:0.0212; stroke-opacity:1; 
stroke-linecap:round; stroke-linejoin:round;">
</g>
<g style="fill:#000000; fill-opacity:1.0000; 
stroke:#000000; stroke-width:0.0000; stroke-opacity:1; 
stroke-linecap:round; stroke-linejoin:round;">
<circle cx="23.6482" cy="25.4500" r="0.7000" /> 
</g>
<g >
</g>
<g style="fill:#000000; fill-opacity:1.0000; 
stroke:#000000; stroke-width:0.0000; stroke-opacity:1; 
stroke-linecap:round; stroke-linejoin:round;">
<circle cx="2.8962" cy="17.8300" r="0.7000" /> 
</g>
<g style="fill:#000000; fill-opacity:1.0000; 
stroke:#000000; stroke-width:0.0212; stroke-opacity:1; 
stroke-linecap:round; stroke-linejoin:round;">
</g>
<g style="fill:#000000; fill-opacity:1.0000; 
stroke:#000000; stroke-width:0.0000; stroke-opacity:1; 
stroke-linecap:round; stroke-linejoin:round;">
<circle cx="2.8962" cy="10.2100" r="0.7000" /> 
</g>
<g >
</g>
<g >
</g>
<g style="fill:#000000; fill-opacity:1.0000; 
stroke:#000000; stroke-width:0.0000; stroke-opacity:1; 
stroke-linecap:round; stroke-linejoin:round;">
</g>
<g style="fill:#000000; fill-opacity:1.0000; 
stroke:#000000; stroke-width:1.0000; stroke-opacity:1; 
stroke-linecap:round; stroke-linejoin:round;">
</g>
<g style="fill:#000000; fill-opacity:0.0; 
stroke:#000000; stroke-width:1.0000; stroke-opacity:1; 
stroke-linecap:round; stroke-linejoin:round;">
<path d="M16.0282 12.7500
L19.0762 12.7500
" />
<path d="M8.4082 12.7500
L8.4082 6.9080
" />
<path d="M7.1382 17.8300
L2.8962 17.8300
" />
<path d="M16.5362 1.5740
L9.9422 1.5740
" />
<path d="M9.9422 1.5740
L2.8962 8.6200
" />
<path d="M2.8962 8.6200
L2.8962 10.2100
" />
<path d="M8.4082 17.8300
L8.4082 12.7500
" />
<path d="M9.6782 17.8300
L12.7262 17.8300
" />
<path d="M18.3142 23.4180
L18.3142 25.4500
" />
<path d="M12.7262 17.8300
L18.3142 23.4180
" />
<path d="M29.2362 17.8300
L29.2362 22.9100
" />
<path d="M29.2362 22.9100
L32.2842 25.9580
" />
<path d="M32.2842 25.9580
L32.2842 29.0060
" />
<path d="M32.2842 29.0060
L30.7602 30.5300
" />
<path d="M30.7602 30.5300
L6.8842 30.5300
" />
<path d="M29.2362 27.9900
L20.6002 27.9900
" />
<path d="M20.6002 27.9900
L19.3302 26.7200
" />
<path d="M19.3302 26.7200
L6.8842 26.7200
" />
<path d="M23.6482 25.4500
L18.3142 25.4500
" />
<path d="M18.3142 25.4500
L15.2662 25.4500
" />
<path d="M2.8962 21.9700
L5.1062 24.1800
" />
<path d="M5.1062 24.1800
L15.2662 24.1800
" />
<path d="M29.2362 17.8300
L23.6482 17.8300
" />
<path d="M29.2362 15.5440
L33.5542 15.5440
" />
<path d="M29.2362 12.7500
L29.2362 15.5440
" />
<path d="M29.2362 15.5440
L29.2362 17.8300
" />
<path d="M33.5542 7.4507
L33.5542 10.4640
" />
<path d="M29.2362 3.1327
L33.5542 7.4507
" />
<path d="M19.0762 12.7500
L19.0762 5.1300
" />
<path d="M29.2362 3.1327
L27.6775 1.5740
" />
<path d="M27.6775 1.5740
L16.5362 1.5740
" />
<path d="M29.2362 6.9327
L29.2362 12.7500
" />
<path d="M16.5362 5.1300
L16.5362 1.5740
" />
<path d="M2.8962 21.9700
L2.8962 17.8300
" />
<path d="M19.0762 5.1300
L21.6162 5.1300
" />
</g>
<g >
</g>
<g style="fill:#000000; fill-opacity:0.0; 
stroke:#000000; stroke-width:1.0000; stroke-opacity:1; 
stroke-linecap:round; stroke-linejoin:round;">
<g >
</g>
<g style="fill:#000000; fill-opacity:1.0000; 
stroke:#000000; stroke-width:0.0000; stroke-opacity:1; 
stroke-linecap:round; stroke-linejoin:round;">
<path style="fill:#000000; fill-opacity:1.0000; 
stroke:#000000; stroke-width:0.0000; stroke-opacity:1; 
stroke-linecap:round; stroke-linejoin:round;fill-rule:evenodd;"
d="M 32.8542,9.7186
32.8088,9.7640
32.7922,9.8260
32.7922,10.7246
32.8088,10.7866
32.8542,10.8320
32.9162,10.8486
34.1922,10.8486
34.2542,10.8320
34.2996,10.7866
34.3162,10.7246
34.3162,9.8260
34.2996,9.7640
34.2542,9.7186
34.1922,9.7020
32.9162,9.7020
Z" /> 
</g>
</g>
<g style="fill:#000000; fill-opacity:1.0000; 
stroke:#000000; stroke-width:0.0000; stroke-opacity:1; 
stroke-linecap:round; stroke-linejoin:round;">
<g >
<path style="fill:#000000; fill-opacity:1.0000; 
stroke:#000000; stroke-width:0.0000; stroke-opacity:1; 
stroke-linecap:round; stroke-linejoin:round;fill-rule:evenodd;"
d="M 32.8542,14.7986
32.8088,14.8440
32.7922,14.9060
32.7922,15.8046
32.8088,15.8666
32.8542,15.9120
32.9162,15.9286
34.1922,15.9286
34.2542,15.9120
34.2996,15.8666
34.3162,15.8046
34.3162,14.9060
34.2996,14.8440
34.2542,14.7986
34.1922,14.7820
32.9162,14.7820
Z" /> 
</g>
</g>
<g style="fill:#000000; fill-opacity:1.0000; 
stroke:#000000; stroke-width:0.0000; stroke-opacity:1; 
stroke-linecap:round; stroke-linejoin:round;">
<g >
<path style="fill:#000000; fill-opacity:1.0000; 
stroke:#000000; stroke-width:0.0000; stroke-opacity:1; 
stroke-linecap:round; stroke-linejoin:round;fill-rule:evenodd;"
d="M 6.6946,25.9746
6.6492,26.0200
6.6326,26.0820
6.6326,27.3580
6.6492,27.4200
6.6946,27.4654
6.7566,27.4820
7.5222,27.4820
7.5842,27.4654
7.6296,27.4200
7.6462,27.3580
7.6462,26.0820
7.6296,26.0200
7.5842,25.9746
7.5222,25.9580
6.7566,25.9580
Z" /> 
</g>
</g>
<g style="fill:#000000; fill-opacity:1.0000; 
stroke:#000000; stroke-width:0.0000; stroke-opacity:1; 
stroke-linecap:round; stroke-linejoin:round;">
<g >
<path style="fill:#000000; fill-opacity:1.0000; 
stroke:#000000; stroke-width:0.0000; stroke-opacity:1; 
stroke-linecap:round; stroke-linejoin:round;fill-rule:evenodd;"
d="M 6.6946,29.7846
6.6492,29.8300
6.6326,29.8920
6.6326,31.1680
6.6492,31.2300
6.6946,31.2754
6.7566,31.2920
7.5222,31.2920
7.5842,31.2754
7.6296,31.2300
7.6462,31.1680
7.6462,29.8920
7.6296,29.8300
7.5842,29.7846
7.5222,29.7680
6.7566,29.7680
Z" /> 
</g>
</g>
</g>
<g style="fill:#FFFFFF; fill-opacity:1.0000; 
stroke:#FFFFFF; stroke-width:0.0000; stroke-opacity:1; 
stroke-linecap:round; stroke-linejoin:round;">
<circle cx="8.4082" cy="6.9080" r="0.4000" /> 
</g>
<g style="fill:#FFFFFF; fill-opacity:1.0000; 
stroke:#FFFFFF; stroke-width:0.0212; stroke-opacity:1; 
stroke-linecap:round; stroke-linejoin:round;">
</g>
<g style="fill:#FFFFFF; fill-opacity:1.0000; 
stroke:#FFFFFF; stroke-width:0.0000; stroke-opacity:1; 
stroke-linecap:round; stroke-linejoin:round;">
<circle cx="8.4082" cy="3.1080" r="0.4000" /> 
</g>
<g style="fill:#FFFFFF; fill-opacity:1.0000; 
stroke:#FFFFFF; stroke-width:0.0212; stroke-opacity:1; 
stroke-linecap:round; stroke-linejoin:round;">
</g>
<g style="fill:#FFFFFF; fill-opacity:1.0000; 
stroke:#FFFFFF; stroke-width:0.0000; stroke-opacity:1; 
stroke-linecap:round; stroke-linejoin:round;">
<circle cx="29.2362" cy="17.8300" r="0.4500" /> 
</g>
<g style="fill:#FFFFFF; fill-opacity:1.0000; 
stroke:#FFFFFF; stroke-width:0.0212; stroke-opacity:1; 
stroke-linecap:round; stroke-linejoin:round;">
</g>
<g style="fill:#FFFFFF; fill-opacity:1.0000; 
stroke:#FFFFFF; stroke-width:0.0000; stroke-opacity:1; 
stroke-linecap:round; stroke-linejoin:round;">
<circle cx="29.2362" cy="27.9900" r="0.4500" /> 
</g>
<g style="fill:#FFFFFF; fill-opacity:1.0000; 
stroke:#FFFFFF; stroke-width:0.0212; stroke-opacity:1; 
stroke-linecap:round; stroke-linejoin:round;">
</g>
<g style="fill:#FFFFFF; fill-opacity:1.0000; 
stroke:#FFFFFF; stroke-width:0.0000; stroke-opacity:1; 
stroke-linecap:round; stroke-linejoin:round;">
<circle cx="15.2662" cy="26.7200" r="0.3750" /> 
</g>
<g style="fill:#FFFFFF; fill-opacity:1.0000; 
stroke:#FFFFFF; stroke-width:0.0212; stroke-opacity:1; 
stroke-linecap:round; stroke-linejoin:round;">
</g>
<g style="fill:#FFFFFF; fill-opacity:1.0000; 
stroke:#FFFFFF; stroke-width:0.0000; stroke-opacity:1; 
stroke-linecap:round; stroke-linejoin:round;">
<circle cx="15.2662" cy="25.4500" r="0.3750" /> 
</g>
<g style="fill:#FFFFFF; fill-opacity:1.0000; 
stroke:#FFFFFF; stroke-width:0.0212; stroke-opacity:1; 
stroke-linecap:round; stroke-linejoin:round;">
</g>
<g style="fill:#FFFFFF; fill-opacity:1.0000; 
stroke:#FFFFFF; stroke-width:0.0000; stroke-opacity:1; 
stroke-linecap:round; stroke-linejoin:round;">
<circle cx="15.2662" cy="24.1800" r="0.3750" /> 
</g>
<g style="fill:#FFFFFF; fill-opacity:1.0000; 
stroke:#FFFFFF; stroke-width:0.0212; stroke-opacity:1; 
stroke-linecap:round; stroke-linejoin:round;">
</g>
<g style="fill:#FFFFFF; fill-opacity:1.0000; 
stroke:#FFFFFF; stroke-width:0.0000; stroke-opacity:1; 
stroke-linecap:round; stroke-linejoin:round;">
<circle cx="16.5362" cy="5.1300" r="0.4000" /> 
</g>
<g style="fill:#FFFFFF; fill-opacity:1.0000; 
stroke:#FFFFFF; stroke-width:0.0212; stroke-opacity:1; 
stroke-linecap:round; stroke-linejoin:round;">
</g>
<g style="fill:#FFFFFF; fill-opacity:1.0000; 
stroke:#FFFFFF; stroke-width:0.0000; stroke-opacity:1; 
stroke-linecap:round; stroke-linejoin:round;">
<circle cx="19.0762" cy="5.1300" r="0.4000" /> 
</g>
<g style="fill:#FFFFFF; fill-opacity:1.0000; 
stroke:#FFFFFF; stroke-width:0.0212; stroke-opacity:1; 
stroke-linecap:round; stroke-linejoin:round;">
</g>
<g style="fill:#FFFFFF; fill-opacity:1.0000; 
stroke:#FFFFFF; stroke-width:0.0000; stroke-opacity:1; 
stroke-linecap:round; stroke-linejoin:round;">
<circle cx="21.6162" cy="5.1300" r="0.4000" /> 
</g>
<g style="fill:#FFFFFF; fill-opacity:1.0000; 
stroke:#FFFFFF; stroke-width:0.0212; stroke-opacity:1; 
stroke-linecap:round; stroke-linejoin:round;">
</g>
<g style="fill:#FFFFFF; fill-opacity:1.0000; 
stroke:#FFFFFF; stroke-width:0.0000; stroke-opacity:1; 
stroke-linecap:round; stroke-linejoin:round;">
<circle cx="8.4082" cy="12.7500" r="0.3500" /> 
</g>
<g style="fill:#FFFFFF; fill-opacity:1.0000; 
stroke:#FFFFFF; stroke-width:0.0212; stroke-opacity:1; 
stroke-linecap:round; stroke-linejoin:round;">
</g>
<g style="fill:#FFFFFF; fill-opacity:1.0000; 
stroke:#FFFFFF; stroke-width:0.0000; stroke-opacity:1; 
stroke-linecap:round; stroke-linejoin:round;">
<circle cx="16.0282" cy="12.7500" r="0.3500" /> 
</g>
<g style="fill:#FFFFFF; fill-opacity:1.0000; 
stroke:#FFFFFF; stroke-width:0.0212; stroke-opacity:1; 
stroke-linecap:round; stroke-linejoin:round;">
</g>
<g style="fill:#FFFFFF; fill-opacity:1.0000; 
stroke:#FFFFFF; stroke-width:0.0000; stroke-opacity:1; 
stroke-linecap:round; stroke-linejoin:round;">
<circle cx="19.0762" cy="12.7500" r="0.4500" /> 
</g>
<g style="fill:#FFFFFF; fill-opacity:1.0000; 
stroke:#FFFFFF; stroke-width:0.0212; stroke-opacity:1; 
stroke-linecap:round; stroke-linejoin:round;">
</g>
<g style="fill:#FFFFFF; fill-opacity:1.0000; 
stroke:#FFFFFF; stroke-width:0.0000; stroke-opacity:1; 
stroke-linecap:round; stroke-linejoin:round;">
<circle cx="29.2362" cy="12.7500" r="0.4500" /> 
</g>
<g style="fill:#FFFFFF; fill-opacity:1.0000; 
stroke:#FFFFFF; stroke-width:0.0212; stroke-opacity:1; 
stroke-linecap:round; stroke-linejoin:round;">
</g>
<g style="fill:#FFFFFF; fill-opacity:1.0000; 
stroke:#FFFFFF; stroke-width:0.0000; stroke-opacity:1; 
stroke-linecap:round; stroke-linejoin:round;">
<circle cx="29.2362" cy="6.9327" r="0.4000" /> 
</g>
<g style="fill:#FFFFFF; fill-opacity:1.0000; 
stroke:#FFFFFF; stroke-width:0.0212; stroke-opacity:1; 
stroke-linecap:round; stroke-linejoin:round;">
</g>
<g style="fill:#FFFFFF; fill-opacity:1.0000; 
stroke:#FFFFFF; stroke-width:0.0000; stroke-opacity:1; 
stroke-linecap:round; stroke-linejoin:round;">
<circle cx="29.2362" cy="3.1327" r="0.4000" /> 
</g>
<g style="fill:#FFFFFF; fill-opacity:1.0000; 
stroke:#FFFFFF; stroke-width:0.0212; stroke-opacity:1; 
stroke-linecap:round; stroke-linejoin:round;">
</g>
<g style="fill:#FFFFFF; fill-opacity:1.0000; 
stroke:#FFFFFF; stroke-width:0.0000; stroke-opacity:1; 
stroke-linecap:round; stroke-linejoin:round;">
<circle cx="9.6782" cy="17.8300" r="0.3750" /> 
</g>
<g style="fill:#FFFFFF; fill-opacity:1.0000; 
stroke:#FFFFFF; stroke-width:0.0212; stroke-opacity:1; 
stroke-linecap:round; stroke-linejoin:round;">
</g>
<g style="fill:#FFFFFF; fill-opacity:1.0000; 
stroke:#FFFFFF; stroke-width:0.0000; stroke-opacity:1; 
stroke-linecap:round; stroke-linejoin:round;">
<circle cx="8.4082" cy="17.8300" r="0.3750" /> 
</g>
<g style="fill:#FFFFFF; fill-opacity:1.0000; 
stroke:#FFFFFF; stroke-width:0.0212; stroke-opacity:1; 
stroke-linecap:round; stroke-linejoin:round;">
</g>
<g style="fill:#FFFFFF; fill-opacity:1.0000; 
stroke:#FFFFFF; stroke-width:0.0000; stroke-opacity:1; 
stroke-linecap:round; stroke-linejoin:round;">
<circle cx="7.1382" cy="17.8300" r="0.3750" /> 
</g>
<g style="fill:#FFFFFF; fill-opacity:1.0000; 
stroke:#FFFFFF; stroke-width:0.0212; stroke-opacity:1; 
stroke-linecap:round; stroke-linejoin:round;">
</g>
<g style="fill:#FFFFFF; fill-opacity:1.0000; 
stroke:#FFFFFF; stroke-width:0.0000; stroke-opacity:1; 
stroke-linecap:round; stroke-linejoin:round;">
<circle cx="23.6482" cy="17.8300" r="0.3500" /> 
</g>
<g style="fill:#FFFFFF; fill-opacity:1.0000; 
stroke:#FFFFFF; stroke-width:0.0212; stroke-opacity:1; 
stroke-linecap:round; stroke-linejoin:round;">
</g>
<g style="fill:#FFFFFF; fill-opacity:1.0000; 
stroke:#FFFFFF; stroke-width:0.0000; stroke-opacity:1; 
stroke-linecap:round; stroke-linejoin:round;">
<circle cx="23.6482" cy="25.4500" r="0.3500" /> 
</g>
<g style="fill:#FFFFFF; fill-opacity:1.0000; 
stroke:#FFFFFF; stroke-width:0.0212; stroke-opacity:1; 
stroke-linecap:round; stroke-linejoin:round;">
</g>
<g style="fill:#FFFFFF; fill-opacity:1.0000; 
stroke:#FFFFFF; stroke-width:0.0000; stroke-opacity:1; 
stroke-linecap:round; stroke-linejoin:round;">
<circle cx="2.8962" cy="17.8300" r="0.3500" /> 
</g>
<g style="fill:#FFFFFF; fill-opacity:1.0000; 
stroke:#FFFFFF; stroke-width:0.0212; stroke-opacity:1; 
stroke-linecap:round; stroke-linejoin:round;">
</g>
<g style="fill:#FFFFFF; fill-opacity:1.0000; 
stroke:#FFFFFF; stroke-width:0.0000; stroke-opacity:1; 
stroke-linecap:round; stroke-linejoin:round;">
<circle cx="2.8962" cy="10.2100" r="0.3500" /> 
</g>
<g style="fill:#FFFFFF; fill-opacity:1.0000; 
stroke:#FFFFFF; stroke-width:0.0212; stroke-opacity:1; 
stroke-linecap:round; stroke-linejoin:round;">
</g>
<g style="fill:#000000; fill-opacity:1.0000; 
stroke:#000000; stroke-width:0.0212; stroke-opacity:1; 
stroke-linecap:round; stroke-linejoin:round;">
</g>
<g style="fill:#000000; fill-opacity:1.0000; 
stroke:#000000; stroke-width:0.1000; stroke-opacity:1; 
stroke-linecap:round; stroke-linejoin:round;">
</g>
<g style="fill:#000000; fill-opacity:0.0; 
stroke:#000000; stroke-width:0.1000; stroke-opacity:1; 
stroke-linecap:round; stroke-linejoin:round;">
<path d="M0.0262 31.8000
L0.0262 0.0500
" />
<path d="M35.5862 31.8000
L0.0262 31.8000
" />
<path d="M0.0262 0.0500
L35.5862 0.0500
" />
<path d="M35.5862 0.0500
L35.5862 31.8000
" />
<g >
</g>
<g >
</g>
<g >
</g>
<g >
</g>
<g >
</g>
<g >
</g>
<g >
</g>
<g >
</g>
<g >
</g>
<g >
</g>
<g >
</g>
<g >
</g>
<g >
</g>
</g> 
</svg>
